<svg width="40" height="36" viewBox="0 0 40 36" fill="none" xmlns="http://www.w3.org/2000/svg">
<g clip-path="url(#clip0_1303_2969)">
<path d="M20 3.65322C24.6727 3.65322 25.2261 3.671 27.0714 3.75519C28.7777 3.83307 29.7043 4.11816 30.321 4.35774C31.1378 4.67521 31.7208 5.05449 32.3332 5.66684C32.9455 6.27918 33.3248 6.86222 33.6422 7.679C33.8818 8.29572 34.1669 9.22233 34.2448 10.9285C34.329 12.7739 34.3468 13.3273 34.3468 18C34.3468 22.6728 34.329 23.2262 34.2448 25.0715C34.1669 26.7777 33.8818 27.7043 33.6422 28.3211C33.3248 29.1379 32.9455 29.7209 32.3332 30.3332C31.7208 30.9456 31.1378 31.3249 30.321 31.6423C29.7043 31.8819 28.7777 32.167 27.0714 32.2449C25.2264 32.3291 24.673 32.3469 20 32.3469C15.327 32.3469 14.7735 32.3291 12.9285 32.2449C11.2223 32.167 10.2957 31.8819 9.679 31.6423C8.86215 31.3249 8.27912 30.9456 7.66677 30.3332C7.05442 29.7209 6.67514 29.1379 6.35774 28.3211C6.11809 27.7043 5.833 26.7777 5.75512 25.0716C5.67093 23.2262 5.65315 22.6728 5.65315 18C5.65315 13.3273 5.67093 12.7739 5.75512 10.9286C5.833 9.22234 6.11809 8.29572 6.35774 7.679C6.67514 6.86222 7.05442 6.27918 7.66677 5.66684C8.27912 5.05449 8.86215 4.67521 9.679 4.35774C10.2957 4.11816 11.2223 3.83307 12.9284 3.75519C14.7738 3.671 15.3272 3.65322 20 3.65322ZM20 0.5C15.2472 0.5 14.6513 0.520145 12.7848 0.605311C10.922 0.690338 9.64996 0.986126 8.53677 1.41876C7.38599 1.86599 6.41005 2.46437 5.43718 3.43725C4.4643 4.41012 3.86592 5.38606 3.41869 6.53684C2.98606 7.65003 2.69027 8.9221 2.60524 10.7848C2.52008 12.6513 2.5 13.2473 2.5 18C2.5 22.7528 2.52008 23.3487 2.60524 25.2152C2.69027 27.078 2.98606 28.35 3.41869 29.4632C3.86592 30.6139 4.4643 31.5899 5.43718 32.5628C6.41005 33.5357 7.38599 34.1341 8.53677 34.5813C9.64996 35.0139 10.922 35.3097 12.7848 35.3948C14.6513 35.4799 15.2472 35.5 20 35.5C24.7527 35.5 25.3487 35.4799 27.2152 35.3948C29.0779 35.3097 30.35 35.0139 31.4632 34.5813C32.6139 34.1341 33.5899 33.5357 34.5628 32.5628C35.5356 31.5899 36.134 30.614 36.5812 29.4632C37.0139 28.35 37.3097 27.078 37.3947 25.2152C37.4799 23.3487 37.5 22.7528 37.5 18C37.5 13.2473 37.4799 12.6513 37.3947 10.7848C37.3097 8.9221 37.0139 7.65003 36.5812 6.53684C36.134 5.38606 35.5356 4.41012 34.5628 3.43725C33.5899 2.46437 32.6139 1.86599 31.4632 1.41876C30.35 0.986126 29.0779 0.690338 27.2152 0.605311C25.3487 0.520145 24.7527 0.5 20 0.5ZM20 9.01352C15.0369 9.01352 11.0134 13.0369 11.0134 18C11.0134 22.9631 15.0369 26.9865 20 26.9865C24.9631 26.9865 28.9865 22.9631 28.9865 18C28.9865 13.0369 24.9631 9.01352 20 9.01352ZM20 23.8334C16.7783 23.8334 14.1666 21.2217 14.1666 18C14.1666 14.7784 16.7783 12.1667 20 12.1667C23.2216 12.1667 25.8333 14.7784 25.8333 18C25.8333 21.2217 23.2216 23.8334 20 23.8334ZM31.4415 8.65848C31.4415 9.81829 30.5013 10.7585 29.3415 10.7585C28.1817 10.7585 27.2415 9.81829 27.2415 8.65848C27.2415 7.49867 28.1817 6.55851 29.3415 6.55851C30.5013 6.55851 31.4415 7.49867 31.4415 8.65848Z" fill="#F4EFEF"/>
</g>
<defs>
<clipPath id="clip0_1303_2969">
<rect width="40" height="35" fill="white" transform="translate(0 0.5)"/>
</clipPath>
</defs>
</svg>
