<svg width="40" height="25" viewBox="0 0 40 25" fill="none" xmlns="http://www.w3.org/2000/svg">
<path fill-rule="evenodd" clip-rule="evenodd" d="M7.0054 9.47413C6.51513 9.45459 6.05169 9.46652 5.61475 9.50693V19.3104L7.0054 19.309V9.47413ZM7.57816 19.3087L8.96947 19.3084V6.15652C8.42156 6.70013 7.9558 7.35305 7.57816 8.09144V19.3087ZM9.54189 19.3081L10.9329 19.3074V4.84803C10.4303 5.05175 9.96624 5.3224 9.54189 5.65234V19.3081ZM11.5053 19.3071L12.8145 19.3061V4.426C12.356 4.45482 11.9197 4.53101 11.5053 4.65026V19.3071ZM13.3872 19.3057L14.9415 19.3047V4.61117C14.4012 4.4896 13.8825 4.426 13.3872 4.41473V19.3057ZM15.7369 19.3044L16.4342 19.3037C16.8893 14.6028 17.1908 9.90147 16.7416 5.20082C16.3216 5.02194 15.9128 4.87519 15.5143 4.75925C15.1634 10.4259 15.4086 15.2212 15.7369 19.3044ZM17.3143 19.3034L36.1318 19.2921C43.5386 15.5959 39.143 6.73425 32.6956 8.81956C32.7675 -0.0129467 20.4743 -2.02438 17.3143 4.99312V19.3034ZM5.042 9.57782C4.50701 9.66196 4.0164 9.79082 3.5692 9.95712V19.1951C3.83189 19.2524 4.10849 19.2918 4.39868 19.311L5.042 19.3107V9.57782ZM2.99644 10.2013C2.4588 10.462 1.99602 10.7813 1.60579 11.1434V18.2659C2 18.5882 2.4641 18.8519 2.99644 19.0354V10.2013ZM1.03304 11.7711C-0.372851 13.5908 -0.315542 16.0839 1.03304 17.6994V11.7711Z" fill="#F4EFEF"/>
<mask id="mask0_1303_2975" style="mask-type:luminance" maskUnits="userSpaceOnUse" x="2" y="20" width="36" height="5">
<path d="M2.36084 20.311H37.6392V24.2375H2.36084V20.311Z" fill="white"/>
</mask>
<g mask="url(#mask0_1303_2975)">
<path fill-rule="evenodd" clip-rule="evenodd" d="M4.89329 23.0433C4.89329 23.24 4.85685 23.4133 4.78364 23.5627C4.71076 23.7111 4.61039 23.8356 4.48484 23.9347C4.35896 24.0347 4.21287 24.1089 4.04459 24.159C3.8763 24.2096 3.6961 24.2345 3.50529 24.2345C3.37543 24.2345 3.25485 24.2245 3.14388 24.2027C3.03324 24.1821 2.93518 24.1563 2.85005 24.1265C2.76491 24.096 2.69369 24.0652 2.63671 24.0318C2.5804 23.999 2.53866 23.9705 2.51381 23.9446C2.48831 23.9198 2.47009 23.8833 2.46048 23.8366C2.44955 23.7893 2.44458 23.7207 2.44458 23.6319C2.44458 23.5716 2.44657 23.5223 2.44955 23.4815C2.45352 23.4411 2.46048 23.4073 2.4681 23.3825C2.47704 23.358 2.48897 23.3401 2.50388 23.3291C2.51779 23.3182 2.53468 23.3132 2.55423 23.3132C2.58106 23.3132 2.61949 23.3291 2.66918 23.3609C2.71787 23.3921 2.78114 23.4282 2.85932 23.4663C2.93618 23.5054 3.02827 23.5405 3.13527 23.5723C3.24293 23.6041 3.36649 23.62 3.50827 23.62C3.60136 23.62 3.68417 23.6091 3.75738 23.5875C3.83092 23.5647 3.89287 23.5329 3.94455 23.4925C3.9949 23.4517 4.03465 23.4024 4.06115 23.3421C4.08898 23.2818 4.1019 23.2152 4.1019 23.1423C4.1019 23.0572 4.07904 22.984 4.03266 22.9233C3.98595 22.8621 3.92599 22.8077 3.85179 22.7614C3.77759 22.7137 3.69245 22.6693 3.59804 22.6275C3.5033 22.5861 3.40525 22.5417 3.3052 22.496C3.20483 22.4496 3.10645 22.396 3.01237 22.3377C2.91729 22.2784 2.83382 22.2081 2.75829 22.126C2.68408 22.0438 2.62346 21.9468 2.57709 21.8351C2.53071 21.7222 2.50785 21.5887 2.50785 21.4313C2.50785 21.2524 2.54131 21.0941 2.60789 20.9573C2.67415 20.8218 2.76392 20.7082 2.87787 20.6191C2.99084 20.529 3.12433 20.4617 3.27771 20.4173C3.43109 20.3726 3.59407 20.3511 3.76666 20.3511C3.85444 20.3511 3.94355 20.3567 4.03266 20.3706C4.12144 20.3845 4.20459 20.4024 4.28177 20.4263C4.35896 20.4485 4.4272 20.4756 4.48815 20.5044C4.54811 20.5329 4.58753 20.5578 4.60641 20.5767C4.62629 20.5962 4.63921 20.6118 4.64583 20.626C4.65279 20.6399 4.65809 20.6578 4.66273 20.6794C4.66803 20.7022 4.672 20.73 4.67366 20.7635C4.67465 20.7973 4.67565 20.8397 4.67565 20.8904C4.67565 20.9457 4.67465 20.9927 4.672 21.0315C4.66869 21.0702 4.66372 21.1021 4.65709 21.1276C4.6508 21.1521 4.64119 21.1713 4.62827 21.1822C4.61569 21.1938 4.59846 21.1998 4.57759 21.1998C4.55606 21.1998 4.52227 21.1862 4.47589 21.1594C4.42919 21.1325 4.37287 21.103 4.30463 21.0712C4.23738 21.0388 4.15954 21.01 4.07009 20.9841C3.98098 20.9573 3.88426 20.9447 3.77759 20.9447C3.69411 20.9447 3.62189 20.9546 3.56061 20.9752C3.49833 20.9951 3.44665 21.0239 3.40525 21.0593C3.36417 21.0951 3.33303 21.1375 3.31216 21.1882C3.29229 21.2385 3.28169 21.2919 3.28169 21.3472C3.28169 21.4303 3.30454 21.5022 3.34993 21.5642C3.39564 21.6245 3.45659 21.6788 3.53278 21.7262C3.60897 21.7735 3.6951 21.8182 3.79216 21.859C3.88922 21.9004 3.98695 21.9448 4.08798 21.9915C4.18802 22.0379 4.28707 22.0905 4.3838 22.1485C4.47987 22.2081 4.566 22.2784 4.64119 22.3602C4.71639 22.4427 4.77801 22.5397 4.82405 22.6504C4.87043 22.7623 4.89329 22.8929 4.89329 23.0433ZM8.84991 22.2496C8.84991 22.5603 8.81148 22.8385 8.7343 23.0837C8.65711 23.3291 8.5425 23.5378 8.38945 23.7091C8.23674 23.8794 8.04759 24.0099 7.82299 24.1C7.59773 24.1901 7.33736 24.2345 7.04154 24.2345C6.74969 24.2345 6.49528 24.1971 6.27764 24.1209C6.06 24.0447 5.8788 23.9277 5.73437 23.7714C5.58894 23.614 5.47996 23.4153 5.40774 23.1738C5.33586 22.9323 5.29909 22.6464 5.29909 22.3161C5.29909 22.0124 5.33751 21.7391 5.41569 21.4966C5.49288 21.2541 5.60782 21.0484 5.76054 20.8784C5.91259 20.7082 6.10141 20.5777 6.327 20.4866C6.5516 20.3955 6.81396 20.3511 7.11077 20.3511C7.39566 20.3511 7.64642 20.3885 7.86373 20.4634C8.08038 20.5389 8.26225 20.6548 8.40767 20.8112C8.55409 20.9686 8.66407 21.1653 8.73827 21.4048C8.81347 21.6433 8.84991 21.9242 8.84991 22.2496ZM8.05057 22.2903C8.05057 22.0925 8.03467 21.9133 8.00419 21.752C7.97338 21.5907 7.92005 21.4522 7.84585 21.3376C7.77164 21.2223 7.67259 21.1335 7.54903 21.0712C7.42514 21.008 7.2711 20.9762 7.08526 20.9762C6.8981 20.9762 6.74075 21.0119 6.61487 21.0822C6.49031 21.1534 6.38828 21.2471 6.31143 21.3651C6.23391 21.483 6.17959 21.6205 6.14679 21.7775C6.11532 21.9362 6.09975 22.1021 6.09975 22.2784C6.09975 22.4831 6.11532 22.6673 6.14613 22.8306C6.1766 22.9936 6.22894 23.1334 6.30215 23.249C6.37536 23.3649 6.47441 23.4537 6.59797 23.5143C6.72187 23.5756 6.87723 23.6061 7.06506 23.6061C7.25222 23.6061 7.40858 23.5706 7.53413 23.5014C7.65968 23.4322 7.7617 23.3371 7.83889 23.2175C7.91607 23.0976 7.9704 22.9581 8.0022 22.7988C8.03467 22.6394 8.05057 22.4695 8.05057 22.2903ZM12.5525 22.7713C12.5525 23.0005 12.519 23.2066 12.4508 23.3884C12.3835 23.5696 12.2835 23.724 12.1529 23.8496C12.0211 23.9751 11.8591 24.0702 11.665 24.1364C11.4722 24.2014 11.2496 24.2345 10.9992 24.2345C10.7626 24.2345 10.551 24.2053 10.3638 24.1464C10.176 24.0871 10.0176 23.998 9.88809 23.8784C9.75923 23.7585 9.66051 23.6091 9.59128 23.4302C9.52337 23.252 9.48826 23.0423 9.48826 22.8028V20.521C9.48826 20.5025 9.49422 20.4842 9.50614 20.4697C9.51708 20.4538 9.53761 20.4412 9.56842 20.4322C9.59823 20.4223 9.63766 20.4143 9.68503 20.4084C9.73372 20.4024 9.796 20.3991 9.8712 20.3991C9.94441 20.3991 10.0057 20.4024 10.0537 20.4084C10.1018 20.4143 10.1402 20.4223 10.1703 20.4322C10.1988 20.4412 10.2197 20.4538 10.2323 20.4697C10.2445 20.4842 10.2515 20.5025 10.2515 20.521V22.7365C10.2515 22.8849 10.269 23.0134 10.3055 23.1234C10.3423 23.2321 10.3956 23.3232 10.4638 23.3944C10.5321 23.4656 10.6142 23.5193 10.7106 23.5547C10.8064 23.5902 10.913 23.6091 11.0306 23.6091C11.1505 23.6091 11.2572 23.5902 11.3523 23.5537C11.4474 23.5173 11.5275 23.4636 11.5928 23.3921C11.659 23.3222 11.7094 23.2351 11.7452 23.1324C11.7806 23.028 11.7985 22.9108 11.7985 22.7799V20.521C11.7985 20.5025 11.8045 20.4842 11.8167 20.4697C11.8273 20.4538 11.8485 20.4412 11.877 20.4322C11.9065 20.4223 11.9449 20.4143 11.9946 20.4084C12.044 20.4024 12.1052 20.3991 12.1785 20.3991C12.2517 20.3991 12.312 20.4024 12.3597 20.4084C12.407 20.4143 12.4448 20.4223 12.4743 20.4322C12.5031 20.4412 12.524 20.4538 12.5346 20.4697C12.5465 20.4842 12.5525 20.5025 12.5525 20.521V22.7713ZM16.4597 23.9009C16.4597 23.9456 16.4518 23.985 16.4369 24.0208C16.4213 24.0553 16.4004 24.0841 16.3749 24.107C16.3481 24.1305 16.3173 24.1474 16.2818 24.1583C16.246 24.1682 16.2096 24.1742 16.1728 24.1742H15.8485C15.7813 24.1742 15.7217 24.1672 15.6733 24.1533C15.6236 24.1404 15.5782 24.1159 15.5365 24.0801C15.4951 24.0447 15.4547 23.996 15.4159 23.9347C15.3775 23.8744 15.3337 23.7949 15.2867 23.6982L14.3522 21.9448C14.2989 21.8401 14.2436 21.7281 14.1869 21.6076C14.1316 21.487 14.0816 21.369 14.0365 21.2554H14.0309C14.0385 21.3939 14.0445 21.5324 14.0484 21.6708C14.0514 21.809 14.0534 21.9517 14.0534 22.0982V24.0612C14.0534 24.0801 14.0484 24.098 14.0375 24.1129C14.0279 24.1285 14.009 24.1414 13.9832 24.152C13.9567 24.1629 13.9219 24.1712 13.8775 24.1768C13.8328 24.1831 13.7755 24.1861 13.7062 24.1861C13.639 24.1861 13.5827 24.1831 13.538 24.1768C13.4936 24.1712 13.4588 24.1629 13.4333 24.152C13.4084 24.1414 13.3915 24.1285 13.3819 24.1129C13.3717 24.098 13.3667 24.0801 13.3667 24.0612V20.6893C13.3667 20.5992 13.3935 20.531 13.4469 20.4856C13.4995 20.4399 13.5648 20.4173 13.642 20.4173H14.0514C14.1246 20.4173 14.1859 20.4233 14.2366 20.4362C14.287 20.4485 14.3317 20.4697 14.3714 20.4985C14.4105 20.5266 14.4483 20.5677 14.4831 20.6191C14.5175 20.6694 14.5533 20.733 14.5897 20.8082L15.3208 22.1793C15.3636 22.2625 15.405 22.3446 15.4467 22.4245C15.4881 22.505 15.5289 22.5851 15.5673 22.6653C15.606 22.7455 15.6435 22.8246 15.6802 22.9015C15.7167 22.979 15.7525 23.0562 15.7869 23.1334H15.7899C15.7839 22.9975 15.78 22.8571 15.777 22.7097C15.7743 22.5633 15.773 22.4228 15.773 22.2903V20.53C15.773 20.5114 15.779 20.4935 15.7899 20.4776C15.8018 20.4627 15.8217 20.4485 15.8485 20.4372C15.875 20.4263 15.9105 20.4173 15.9552 20.4134C15.9996 20.4084 16.0572 20.4054 16.1265 20.4054C16.1927 20.4054 16.247 20.4084 16.2914 20.4134C16.3362 20.4173 16.3706 20.4263 16.3945 20.4372C16.4193 20.4485 16.4362 20.4627 16.4448 20.4776C16.4547 20.4935 16.4597 20.5114 16.4597 20.53V23.9009ZM20.3938 22.238C20.3938 22.5811 20.3481 22.876 20.2583 23.1204C20.1682 23.3649 20.0397 23.5647 19.8714 23.719C19.7035 23.8734 19.4994 23.987 19.2589 24.0592C19.0174 24.1315 18.7319 24.1682 18.3989 24.1682H17.5035C17.4393 24.1682 17.3859 24.1494 17.3422 24.1119C17.2988 24.0742 17.2769 24.0129 17.2769 23.9277V20.6578C17.2769 20.5727 17.2988 20.5114 17.3422 20.4733C17.3859 20.4362 17.4393 20.4173 17.5035 20.4173H18.4655C18.7998 20.4173 19.0837 20.4567 19.3162 20.5349C19.5488 20.6131 19.7459 20.729 19.9049 20.8824C20.0642 21.0355 20.1861 21.2256 20.2693 21.4522C20.3521 21.6778 20.3938 21.9401 20.3938 22.238ZM19.6051 22.2635C19.6051 22.0852 19.5845 21.9213 19.5428 21.7679C19.5014 21.6155 19.4341 21.483 19.342 21.3707C19.2513 21.2594 19.1333 21.1713 18.9889 21.109C18.8451 21.0454 18.6563 21.0139 18.4218 21.0139H18.0369V23.5653H18.4337C18.6424 23.5653 18.8186 23.5378 18.9614 23.4842C19.1045 23.4302 19.2231 23.348 19.3192 23.239C19.4153 23.1304 19.4865 22.9936 19.5338 22.8316C19.5816 22.6693 19.6051 22.4801 19.6051 22.2635ZM23.6134 23.6001C23.6134 23.6488 23.6124 23.6889 23.6094 23.723C23.6064 23.7561 23.6014 23.7863 23.5965 23.8101C23.5905 23.8347 23.5826 23.8552 23.573 23.8724C23.563 23.8903 23.5481 23.9098 23.5266 23.9317C23.5057 23.9542 23.464 23.9821 23.4037 24.0175C23.3424 24.0523 23.2682 24.0861 23.1804 24.1179C23.0923 24.1494 22.9919 24.1762 22.8783 24.1971C22.7653 24.2186 22.6438 24.2292 22.5126 24.2292C22.2549 24.2292 22.0233 24.1891 21.8166 24.1096C21.6099 24.0308 21.4336 23.9128 21.2892 23.7555C21.1438 23.5971 21.0328 23.4014 20.9556 23.1648C20.8785 22.929 20.839 22.6553 20.839 22.3416C20.839 22.023 20.8814 21.7401 20.9666 21.4929C21.0517 21.2455 21.1706 21.0378 21.3237 20.8695C21.4761 20.7012 21.6592 20.5737 21.8732 20.4866C22.0866 20.3991 22.3211 20.356 22.5785 20.356C22.6832 20.356 22.7832 20.365 22.8803 20.3825C22.977 20.3991 23.0661 20.4223 23.1486 20.4508C23.2304 20.4786 23.3046 20.5114 23.3699 20.5475C23.4351 20.5846 23.4819 20.6161 23.5074 20.6419C23.5342 20.6674 23.5521 20.6893 23.561 20.7069C23.571 20.7251 23.5786 20.7466 23.5845 20.7734C23.5905 20.8013 23.5945 20.8327 23.5975 20.8695C23.6008 20.9059 23.6014 20.9517 23.6014 21.006C23.6014 21.0633 23.5995 21.113 23.5965 21.1534C23.5925 21.1938 23.5855 21.2263 23.5763 21.2524C23.566 21.277 23.5551 21.2958 23.5412 21.3068C23.5272 21.3187 23.5127 21.3247 23.4951 21.3247C23.466 21.3247 23.4292 21.3078 23.3848 21.274C23.3404 21.2405 23.2831 21.2018 23.2115 21.1604C23.1416 21.1186 23.0572 21.0812 22.9604 21.0474C22.8624 21.0139 22.7458 20.997 22.61 20.997C22.4616 20.997 22.3291 21.0278 22.2125 21.0881C22.0945 21.1494 21.9958 21.2365 21.9137 21.3492C21.8315 21.4621 21.7692 21.5986 21.7265 21.7589C21.6841 21.9203 21.6622 22.1002 21.6622 22.3012C21.6622 22.5218 21.6851 22.7127 21.7305 22.874C21.7758 23.035 21.8414 23.1678 21.9252 23.2725C22.0094 23.3765 22.1104 23.4547 22.229 23.5064C22.3479 23.5567 22.4824 23.5826 22.6308 23.5826C22.7663 23.5826 22.8836 23.5667 22.981 23.5349C23.08 23.5034 23.1652 23.4676 23.2354 23.4292C23.3056 23.3904 23.3643 23.356 23.41 23.3242C23.455 23.2934 23.4898 23.2788 23.5153 23.2788C23.5342 23.2788 23.5501 23.2818 23.561 23.2894C23.573 23.2973 23.5826 23.3132 23.5905 23.3358C23.5985 23.3599 23.6034 23.3914 23.6074 23.4332C23.6117 23.4746 23.6134 23.5299 23.6134 23.6001ZM26.2227 23.8496C26.2227 23.9069 26.2204 23.9566 26.2158 23.996C26.2105 24.0354 26.2035 24.0682 26.1939 24.094C26.184 24.1209 26.1721 24.1394 26.1571 24.1503C26.1432 24.1623 26.1257 24.1682 26.1068 24.1682H24.3882C24.3239 24.1682 24.2703 24.1494 24.2269 24.1119C24.1831 24.0742 24.1616 24.0129 24.1616 23.9277V20.521C24.1616 20.5025 24.1676 20.4842 24.1805 20.4697C24.1931 20.4538 24.214 20.4412 24.2428 20.4322C24.2713 20.4223 24.3113 20.4143 24.3607 20.4084C24.4101 20.4024 24.4713 20.3991 24.5446 20.3991C24.6198 20.3991 24.681 20.4024 24.7294 20.4084C24.7778 20.4143 24.8165 20.4223 24.8453 20.4322C24.8748 20.4412 24.8957 20.4538 24.9076 20.4697C24.9205 20.4842 24.9275 20.5025 24.9275 20.521V23.5388H26.1068C26.1257 23.5388 26.1432 23.5448 26.1571 23.5547C26.1721 23.5653 26.184 23.5832 26.1939 23.6071C26.2035 23.6319 26.2105 23.6637 26.2158 23.7031C26.2204 23.7429 26.2227 23.7913 26.2227 23.8496ZM29.9418 22.2496C29.9418 22.5603 29.9031 22.8385 29.8259 23.0837C29.749 23.3291 29.6341 23.5378 29.4807 23.7091C29.3287 23.8794 29.1392 24.0099 28.9146 24.1C28.6893 24.1901 28.429 24.2345 28.1331 24.2345C27.8413 24.2345 27.5869 24.1971 27.3692 24.1209C27.1519 24.0447 26.9704 23.9277 26.826 23.7714C26.6805 23.614 26.5719 23.4153 26.4997 23.1738C26.4278 22.9323 26.3907 22.6464 26.3907 22.3161C26.3907 22.0124 26.4294 21.7391 26.5073 21.4966C26.5845 21.2541 26.6998 21.0484 26.8518 20.8784C27.0042 20.7082 27.193 20.5777 27.4186 20.4866C27.6432 20.3955 27.9056 20.3511 28.2024 20.3511C28.4876 20.3511 28.7377 20.3885 28.9553 20.4634C29.172 20.5389 29.3542 20.6548 29.4996 20.8112C29.646 20.9686 29.7557 21.1653 29.8299 21.4048C29.9051 21.6433 29.9418 21.9242 29.9418 22.2496ZM29.1422 22.2903C29.1422 22.0925 29.1266 21.9133 29.0958 21.752C29.065 21.5907 29.0117 21.4522 28.9375 21.3376C28.8632 21.2223 28.7642 21.1335 28.6406 21.0712C28.5171 21.008 28.3627 20.9762 28.1769 20.9762C27.9897 20.9762 27.8324 21.0119 27.7068 21.0822C27.5819 21.1534 27.4799 21.2471 27.403 21.3651C27.3258 21.483 27.2712 21.6205 27.2387 21.7775C27.2069 21.9362 27.191 22.1021 27.191 22.2784C27.191 22.4831 27.2069 22.6673 27.2377 22.8306C27.2685 22.9936 27.3209 23.1334 27.3941 23.249C27.4673 23.3649 27.566 23.4537 27.6899 23.5143C27.8135 23.5756 27.9688 23.6061 28.1567 23.6061C28.3438 23.6061 28.5002 23.5706 28.6257 23.5014C28.7516 23.4322 28.8533 23.3371 28.9305 23.2175C29.0077 23.0976 29.062 22.9581 29.0938 22.7988C29.1266 22.6394 29.1422 22.4695 29.1422 22.2903ZM33.6441 22.7713C33.6441 23.0005 33.6106 23.2066 33.5424 23.3884C33.4751 23.5696 33.3751 23.724 33.2446 23.8496C33.113 23.9751 32.9507 24.0702 32.7566 24.1364C32.5638 24.2014 32.3412 24.2345 32.0908 24.2345C31.8542 24.2345 31.6426 24.2053 31.4561 24.1464C31.2676 24.0871 31.1096 23.998 30.9797 23.8784C30.8515 23.7585 30.7521 23.6091 30.6829 23.4302C30.615 23.252 30.5799 23.0423 30.5799 22.8028V20.521C30.5799 20.5025 30.5858 20.4842 30.5977 20.4697C30.6087 20.4538 30.6295 20.4412 30.66 20.4322C30.6898 20.4223 30.7293 20.4143 30.7773 20.4084C30.8253 20.4024 30.8876 20.3991 30.9628 20.3991C31.036 20.3991 31.0973 20.4024 31.145 20.4084C31.1934 20.4143 31.2321 20.4223 31.2616 20.4322C31.2904 20.4412 31.311 20.4538 31.3239 20.4697C31.3358 20.4842 31.3428 20.5025 31.3428 20.521V22.7365C31.3428 22.8849 31.3606 23.0134 31.3971 23.1234C31.4339 23.2321 31.4875 23.3232 31.5554 23.3944C31.6237 23.4656 31.7058 23.5193 31.8022 23.5547C31.898 23.5902 32.0046 23.6091 32.1226 23.6091C32.2421 23.6091 32.3491 23.5902 32.4439 23.5537C32.539 23.5173 32.6191 23.4636 32.6844 23.3921C32.7506 23.3222 32.8013 23.2351 32.8368 23.1324C32.8729 23.028 32.8904 22.9108 32.8904 22.7799V20.521C32.8904 20.5025 32.8961 20.4842 32.9083 20.4697C32.9189 20.4538 32.9401 20.4412 32.9683 20.4322C32.9981 20.4223 33.0368 20.4143 33.0862 20.4084C33.1356 20.4024 33.1968 20.3991 33.2701 20.3991C33.3433 20.3991 33.4039 20.4024 33.4513 20.4084C33.4986 20.4143 33.5364 20.4223 33.5659 20.4322C33.5947 20.4412 33.6156 20.4538 33.6265 20.4697C33.6384 20.4842 33.6441 20.5025 33.6441 20.521V22.7713ZM37.5752 22.238C37.5752 22.5811 37.5301 22.876 37.4397 23.1204C37.3499 23.3649 37.221 23.5647 37.0531 23.719C36.8845 23.8734 36.6808 23.987 36.4403 24.0592C36.1988 24.1315 35.9129 24.1682 35.5806 24.1682H34.6856C34.6206 24.1682 34.5673 24.1494 34.5239 24.1119C34.4805 24.0742 34.4586 24.0129 34.4586 23.9277V20.6578C34.4586 20.5727 34.4805 20.5114 34.5239 20.4733C34.5673 20.4362 34.6206 20.4173 34.6856 20.4173H35.6469C35.9811 20.4173 36.2654 20.4567 36.4976 20.5349C36.7301 20.6131 36.9272 20.729 37.0866 20.8824C37.2459 21.0355 37.3675 21.2256 37.4506 21.4522C37.5338 21.6778 37.5752 21.9401 37.5752 22.238ZM36.7868 22.2635C36.7868 22.0852 36.7659 21.9213 36.7245 21.7679C36.6827 21.6155 36.6155 21.483 36.5234 21.3707C36.4323 21.2594 36.3147 21.1713 36.1703 21.109C36.0268 21.0454 35.8377 21.0139 35.6032 21.0139H35.2189V23.5653H35.6151C35.8238 23.5653 36 23.5378 36.1425 23.4842C36.2862 23.4302 36.4048 23.348 36.5005 23.239C36.5969 23.1304 36.6678 22.9936 36.7155 22.8316C36.7632 22.6693 36.7868 22.4801 36.7868 22.2635Z" fill="#F4EFEF"/>
</g>
</svg>
