<svg width="40" height="35" viewBox="0 0 40 35" fill="none" xmlns="http://www.w3.org/2000/svg">
<path d="M35 14.417C32.051 14.424 29.1744 13.5044 26.7764 11.7879V23.7592C26.7756 25.9764 26.0979 28.1406 24.8339 29.9622C23.57 31.7839 21.78 33.1763 19.7033 33.9531C17.6267 34.73 15.3623 34.8544 13.2131 34.3097C11.0638 33.7649 9.13208 32.577 7.67619 30.9047C6.22029 29.2325 5.30963 27.1556 5.06596 24.9518C4.82229 22.748 5.25724 20.5224 6.31263 18.5724C7.36803 16.6225 8.99358 15.0413 10.9719 14.0401C12.9502 13.039 15.1871 12.6657 17.3833 12.9701V18.9913C16.3783 18.6752 15.2991 18.6847 14.2999 19.0185C13.3006 19.3523 12.4324 19.9933 11.8191 20.85C11.2059 21.7067 10.8791 22.7352 10.8853 23.7888C10.8915 24.8423 11.2304 25.8669 11.8537 26.7163C12.477 27.5657 13.3527 28.1964 14.3558 28.5185C15.3589 28.8405 16.4381 28.8373 17.4393 28.5093C18.4405 28.1814 19.3125 27.5455 19.9308 26.6924C20.549 25.8394 20.8819 24.8127 20.8818 23.7592V0.356445H26.7764C26.7723 0.854228 26.814 1.35133 26.901 1.84147C27.1058 2.93564 27.5317 3.97652 28.1526 4.90044C28.7735 5.82437 29.5764 6.61191 30.5121 7.21491C31.8433 8.09513 33.4041 8.56429 35 8.56396V14.417Z" fill="#F4EFEF"/>
</svg>
