<svg width="40" height="39" viewBox="0 0 40 39" fill="none" xmlns="http://www.w3.org/2000/svg">
<path d="M26.9034 22.6667C27.0301 21.6217 27.1251 20.5767 27.1251 19.5001C27.1251 18.4234 27.0301 17.3784 26.9034 16.3334H32.2551C32.5084 17.3467 32.6667 18.4076 32.6667 19.5001C32.6667 20.5926 32.5084 21.6534 32.2551 22.6667M24.1009 31.4701C25.0509 29.7126 25.7792 27.8126 26.2859 25.8334H30.9567C29.4228 28.4748 26.9891 30.4757 24.1009 31.4701ZM23.7051 22.6667H16.2951C16.1367 21.6217 16.0417 20.5767 16.0417 19.5001C16.0417 18.4234 16.1367 17.3626 16.2951 16.3334H23.7051C23.8476 17.3626 23.9584 18.4234 23.9584 19.5001C23.9584 20.5767 23.8476 21.6217 23.7051 22.6667ZM20.0001 32.1034C18.6859 30.2034 17.6251 28.0976 16.9759 25.8334H23.0242C22.3751 28.0976 21.3142 30.2034 20.0001 32.1034ZM13.6667 13.1667H9.04341C10.5616 10.5182 12.9935 8.5141 15.8834 7.53008C14.9334 9.28758 14.2209 11.1876 13.6667 13.1667ZM9.04341 25.8334H13.6667C14.2209 27.8126 14.9334 29.7126 15.8834 31.4701C12.9996 30.4752 10.5711 28.474 9.04341 25.8334ZM7.74508 22.6667C7.49175 21.6534 7.33341 20.5926 7.33341 19.5001C7.33341 18.4076 7.49175 17.3467 7.74508 16.3334H13.0967C12.9701 17.3784 12.8751 18.4234 12.8751 19.5001C12.8751 20.5767 12.9701 21.6217 13.0967 22.6667M20.0001 6.88091C21.3142 8.78091 22.3751 10.9026 23.0242 13.1667H16.9759C17.6251 10.9026 18.6859 8.78091 20.0001 6.88091ZM30.9567 13.1667H26.2859C25.7904 11.2057 25.0566 9.31275 24.1009 7.53008C27.0142 8.52758 29.4367 10.5384 30.9567 13.1667ZM20.0001 3.66675C11.2442 3.66675 4.16675 10.7917 4.16675 19.5001C4.16675 23.6993 5.8349 27.7266 8.80422 30.6959C10.2745 32.1662 12.0199 33.3325 13.9409 34.1282C15.8619 34.9239 17.9208 35.3334 20.0001 35.3334C24.1993 35.3334 28.2266 33.6653 31.1959 30.6959C34.1653 27.7266 35.8334 23.6993 35.8334 19.5001C35.8334 17.4208 35.4239 15.3619 34.6282 13.4409C33.8325 11.5199 32.6662 9.77448 31.1959 8.30422C29.7257 6.83396 27.9802 5.66769 26.0592 4.87199C24.1382 4.07629 22.0793 3.66675 20.0001 3.66675Z" fill="#F4EFEF"/>
</svg>
