<svg width="40" height="29" viewBox="0 0 40 29" fill="none" xmlns="http://www.w3.org/2000/svg">
<path d="M39.1173 4.87991C38.6504 3.15447 37.3025 1.80663 35.5771 1.33973C32.473 0.493164 19.9798 0.493164 19.9798 0.493164C19.9798 0.493164 7.48652 0.518818 4.38245 1.36538C2.65701 1.83228 1.30917 3.18012 0.84227 4.90556C-0.0966475 10.4211 -0.460927 18.8251 0.867923 24.12C1.33482 25.8455 2.68266 27.1933 4.4081 27.6602C7.51217 28.5068 20.0054 28.5068 20.0054 28.5068C20.0054 28.5068 32.4987 28.5068 35.6027 27.6602C37.3282 27.1933 38.676 25.8455 39.1429 24.12C40.1331 18.5968 40.4384 10.1979 39.1173 4.87991Z" fill="#F4EFEF"/>
<path d="M16.0034 20.5029L26.3674 14.5L16.0034 8.49707V20.5029Z" fill="black"/>
</svg>
