<svg width="60" height="60" viewBox="0 0 60 60" fill="none" xmlns="http://www.w3.org/2000/svg">
<path d="M29.9998 5.625C29.5025 5.625 29.0256 5.82254 28.674 6.17417C28.3223 6.52581 28.1248 7.00272 28.1248 7.5V35.65C26.2498 34.0595 23.8813 33.1684 21.4229 33.1288C18.9645 33.0891 16.5684 33.9033 14.6431 35.4325C12.7178 36.9618 11.3825 39.1114 10.8647 41.515C10.347 43.9186 10.6788 46.4273 11.8038 48.6136C12.9287 50.7999 14.7771 52.5284 17.0338 53.5044C19.2905 54.4804 21.8158 54.6435 24.1794 53.966C26.5429 53.2885 28.5983 51.8122 29.9952 49.7888C31.3921 47.7654 32.044 45.3202 31.8398 42.87C31.8635 42.7481 31.8752 42.6242 31.8748 42.5V19.375H44.9998C46.8231 19.375 48.5718 18.6507 49.8611 17.3614C51.1505 16.072 51.8748 14.3234 51.8748 12.5C51.8748 10.6766 51.1505 8.92795 49.8611 7.63864C48.5718 6.34933 46.8231 5.625 44.9998 5.625H29.9998Z" fill="#4D4D4D"/>
</svg>
