<svg width="60" height="60" viewBox="0 0 60 60" fill="none" xmlns="http://www.w3.org/2000/svg">
<path d="M0.00488281 19.375C0.00488281 16.8886 0.992603 14.504 2.75076 12.7459C4.50891 10.9877 6.89348 10 9.37988 10H30.6299C33.1163 10 35.5009 10.9877 37.259 12.7459C39.0172 14.504 40.0049 16.8886 40.0049 19.375V40.625C40.0049 43.1114 39.0172 45.496 37.259 47.2541C35.5009 49.0123 33.1163 50 30.6299 50H9.37988C6.89348 50 4.50891 49.0123 2.75076 47.2541C0.992603 45.496 0.00488281 43.1114 0.00488281 40.625V19.375ZM53.1349 46.7075L42.5049 39.3675V20.625L53.1349 13.285C56.0349 11.28 59.9949 13.36 59.9949 16.885V43.11C59.9949 46.635 56.0374 48.71 53.1349 46.7075Z" fill="#4D4D4D"/>
</svg>
