<svg width="40" height="40" viewBox="0 0 40 40" fill="none" xmlns="http://www.w3.org/2000/svg">
<path d="M20.0121 1.68946C16.4492 1.68946 13.2249 1.91227 10.8543 2.28032C9.66916 2.4643 8.70165 2.67954 7.97353 2.94672C7.60947 3.08032 7.30415 3.22133 7.03853 3.42282C6.78556 3.61477 6.519 3.91969 6.494 4.34079H6.4354C6.4354 5.12829 6.46369 5.90501 6.51853 6.66993H4.49447C4.48509 6.04868 4.4947 5.42602 4.52384 4.80469L2.42915 4.31407C1.76165 12.6478 5.00775 20.7591 10.9815 26.5356L12.2045 24.2235C11.879 23.9539 11.5622 23.6738 11.2548 23.3837C11.7167 22.9011 12.2207 22.4607 12.761 22.0678C13.8132 23.0969 14.9627 23.9088 16.1839 24.4627C17.9116 25.849 16.8131 26.7571 14.348 27.2948C18.9467 28.1229 17.3908 32.1594 13.2445 34.5067C13.0773 34.5278 12.912 34.5476 12.7538 34.5702C11.8127 34.7044 11.0448 34.86 10.4565 35.0584C10.1624 35.1577 9.9129 35.2616 9.68259 35.4222C9.45212 35.5827 9.16494 35.8679 9.16494 36.3133C9.16494 36.7588 9.4522 37.0414 9.68259 37.202C9.9129 37.3625 10.1623 37.4666 10.4565 37.5658C11.0448 37.7642 11.8127 37.9198 12.7538 38.0541C14.6362 38.3225 17.1901 38.4861 20.0121 38.4861C22.8342 38.4861 25.3881 38.3225 27.2704 38.0541C28.2117 37.9198 28.9795 37.7642 29.5678 37.5658C29.8619 37.4666 30.1113 37.3625 30.3417 37.202C30.572 37.0415 30.8592 36.7588 30.8592 36.3134C30.8592 35.8679 30.572 35.5827 30.3417 35.4222C30.1113 35.2616 29.862 35.1576 29.5677 35.0584C28.9795 34.86 28.2115 34.7044 27.2703 34.5702C27.113 34.5477 26.9484 34.5277 26.782 34.5066C22.6354 32.1594 21.0796 28.1231 25.6785 27.2948C23.2122 26.7568 22.1136 25.8477 23.845 24.4604C25.0747 23.9018 26.2315 23.0811 27.2897 22.0409C27.8091 22.4138 28.2928 22.8251 28.7327 23.269C28.4108 23.5968 28.0794 23.9151 27.7389 24.2234L29.0036 26.5355C35.1847 20.914 38.0813 12.5097 37.5997 4.26985L35.4636 4.89251C35.4988 5.48704 35.5136 6.07922 35.5075 6.66985H33.508C33.5634 5.89468 33.5911 5.11778 33.591 4.34063H33.5324C33.5072 3.91954 33.2385 3.61461 32.9856 3.42266C32.7198 3.2211 32.4145 3.08024 32.0504 2.94665C31.3223 2.6793 30.3548 2.46407 29.1695 2.28008C26.7991 1.91211 23.5748 1.68922 20.0117 1.68922L20.0121 1.68946ZM20.0121 3.14946C23.5138 3.14946 26.686 3.37243 28.9452 3.72313C30.0749 3.89852 30.9812 4.10844 31.5478 4.31641C31.6291 4.34626 31.6865 4.37501 31.7529 4.4043C31.6865 4.4336 31.6295 4.46227 31.5478 4.49219C30.9813 4.70016 30.0749 4.91251 28.9452 5.0879C26.686 5.43868 23.5138 5.66165 20.0121 5.66165C16.5106 5.66165 13.3383 5.4386 11.079 5.08782C9.94931 4.91243 9.04306 4.70008 8.4765 4.49211C8.39447 4.46196 8.33822 4.43368 8.27142 4.40422C8.33806 4.37485 8.39462 4.34641 8.4765 4.31633C9.04306 4.10836 9.94939 3.89836 11.0791 3.72305C13.3383 3.37227 16.5105 3.14946 20.0121 3.14946ZM4.60197 8.76461H6.73822C7.36767 13.2863 8.94369 17.267 11.1279 20.1904C10.5831 20.6388 10.0805 21.1254 9.62884 21.6504C6.60947 18.021 5.01619 13.4748 4.60197 8.76461ZM33.2885 8.76461H35.3979C34.9617 13.4234 33.2293 17.8391 30.3148 21.4844C29.8852 21.007 29.4192 20.5637 28.9209 20.1586C31.0935 17.2383 32.661 13.2699 33.2885 8.76469V8.76461Z" fill="#F4EFEF"/>
</svg>
