<svg width="40" height="40" viewBox="0 0 40 40" fill="none" xmlns="http://www.w3.org/2000/svg">
<path d="M15 5.00001V1.66667H25V5.00001H15ZM18.3333 23.3333H21.6667V13.3333H18.3333V23.3333ZM20 36.6667C17.9444 36.6667 16.0067 36.2711 14.1867 35.48C12.3667 34.6889 10.7767 33.6122 9.41667 32.25C8.05556 30.8889 6.97944 29.2983 6.18833 27.4783C5.39722 25.6583 5.00111 23.7211 5 21.6667C5 19.6111 5.39611 17.6733 6.18833 15.8533C6.98056 14.0333 8.05667 12.4433 9.41667 11.0833C10.7778 9.72223 12.3683 8.64612 14.1883 7.85501C16.0083 7.06389 17.9456 6.66778 20 6.66667C21.7222 6.66667 23.375 6.94445 24.9583 7.50001C26.5417 8.05556 28.0278 8.86112 29.4167 9.91667L31.75 7.58334L34.0833 9.91667L31.75 12.25C32.8056 13.6389 33.6111 15.125 34.1667 16.7083C34.7222 18.2917 35 19.9445 35 21.6667C35 23.7222 34.6039 25.66 33.8117 27.48C33.0194 29.3 31.9433 30.89 30.5833 32.25C29.2222 33.6111 27.6317 34.6878 25.8117 35.48C23.9917 36.2722 22.0544 36.6678 20 36.6667Z" fill="#F4EFEF"/>
</svg>
