<svg width="36" height="37" viewBox="0 0 36 37" fill="none" xmlns="http://www.w3.org/2000/svg">
<path d="M13.7582 22.7434L22.2437 14.2579M10.5752 17.4394L8.45418 19.5604C7.89702 20.1176 7.45505 20.7791 7.15351 21.507C6.85198 22.235 6.69678 23.0152 6.69678 23.8032C6.69678 24.5911 6.85198 25.3714 7.15351 26.0993C7.45505 26.8273 7.89702 27.4888 8.45418 28.0459C9.01135 28.6031 9.6728 29.0451 10.4008 29.3466C11.1287 29.6481 11.909 29.8033 12.6969 29.8033C13.4849 29.8033 14.2651 29.6481 14.9931 29.3466C15.7211 29.0451 16.3825 28.6031 16.9397 28.0459L19.0577 25.9249M16.9382 11.0749L19.0592 8.95394C19.6163 8.39677 20.2778 7.9548 21.0058 7.65327C21.7337 7.35173 22.514 7.19653 23.3019 7.19653C24.0899 7.19653 24.8701 7.35173 25.5981 7.65327C26.3261 7.9548 26.9875 8.39677 27.5447 8.95394C28.1018 9.5111 28.5438 10.1726 28.8454 10.9005C29.1469 11.6285 29.3021 12.4087 29.3021 13.1967C29.3021 13.9846 29.1469 14.7649 28.8454 15.4928C28.5438 16.2208 28.1018 16.8823 27.5447 17.4394L25.4237 19.5604" stroke="#EC12A0" stroke-width="2" stroke-linecap="round" stroke-linejoin="round"/>
</svg>
