<svg width="36" height="36" viewBox="0 0 36 36" fill="none" xmlns="http://www.w3.org/2000/svg">
<g clip-path="url(#clip0_706_875)">
<path fill-rule="evenodd" clip-rule="evenodd" d="M31.5 10.125V31.5C31.5 32.6935 31.0259 33.8381 30.182 34.682C29.3381 35.5259 28.1935 36 27 36V33.75C27.5967 33.75 28.169 33.5129 28.591 33.091C29.0129 32.669 29.25 32.0967 29.25 31.5V10.125H24.75C23.8549 10.125 22.9964 9.76942 22.3635 9.13649C21.7306 8.50355 21.375 7.64511 21.375 6.75V2.25H9C8.40326 2.25 7.83097 2.48705 7.40901 2.90901C6.98705 3.33097 6.75 3.90326 6.75 4.5V24.75H4.5V4.5C4.5 3.30653 4.97411 2.16193 5.81802 1.31802C6.66193 0.474106 7.80653 0 9 0L21.375 0L31.5 10.125ZM20.4502 31.8825H19.4535V30.5122H20.403C20.6541 30.5161 20.9026 30.4597 21.1275 30.348C21.33 30.2453 21.5011 30.0899 21.6225 29.898C21.7422 29.7069 21.8018 29.4843 21.7935 29.259C21.7988 29.0916 21.766 28.9251 21.6973 28.7723C21.6287 28.6194 21.5262 28.4843 21.3975 28.377C21.1192 28.1453 20.7649 28.025 20.403 28.0395C20.2099 28.0352 20.0177 28.0665 19.836 28.1318C19.6768 28.1879 19.5295 28.2733 19.4018 28.3837C19.2852 28.4807 19.1894 28.6003 19.1202 28.7352C19.0509 28.8702 19.0097 29.0177 18.999 29.169H17.3475C17.361 28.8165 17.4375 28.4888 17.577 28.1858C17.718 27.8828 17.9205 27.6187 18.1845 27.3938C18.4485 27.1658 18.7695 26.988 19.1475 26.8605C19.53 26.733 19.9673 26.667 20.4593 26.6625C21.0863 26.658 21.6285 26.757 22.086 26.9595C22.542 27.162 22.896 27.441 23.148 27.7965C23.4048 28.1484 23.5413 28.5737 23.5373 29.0092C23.5582 29.3868 23.4641 29.7619 23.2673 30.0848C23.1144 30.3354 22.9121 30.5523 22.6726 30.7221C22.4332 30.8919 22.1616 31.0111 21.8745 31.0725V31.1647C22.1984 31.2008 22.5107 31.3068 22.7896 31.4754C23.0685 31.644 23.3075 31.8712 23.49 32.1413C23.7156 32.4896 23.8287 32.8988 23.814 33.3135C23.8185 33.741 23.7307 34.1213 23.5508 34.4543C23.3727 34.7909 23.1194 35.082 22.8105 35.3047C22.4955 35.5327 22.131 35.7083 21.717 35.8312C21.3075 35.9513 20.8703 36.0112 20.4053 36.0112C19.7288 36.0112 19.1512 35.8965 18.6727 35.667C18.2311 35.4638 17.8525 35.145 17.577 34.7445C17.3305 34.3666 17.1921 33.9286 17.1765 33.4777H18.81C18.8275 33.6913 18.9108 33.8941 19.0485 34.0583C19.2032 34.2323 19.3945 34.3698 19.6087 34.461C19.8651 34.5599 20.1373 34.611 20.412 34.6118C20.7091 34.6188 21.004 34.5605 21.276 34.4408C21.5072 34.3347 21.7038 34.1654 21.843 33.9525C21.9798 33.7387 22.0488 33.4885 22.041 33.2347C22.0452 32.9867 21.9762 32.743 21.8425 32.5341C21.7088 32.3251 21.5165 32.1603 21.2895 32.0602C21.0288 31.9346 20.7417 31.8736 20.4525 31.8825H20.4502ZM1.5885 35.8312V29.8463H1.674L3.816 34.7062H4.977L7.1055 29.8463H7.191V35.8312H8.79975V26.8335H6.99975L4.43475 32.6745H4.37625L1.81125 26.8335H0V35.8335L1.5885 35.8312ZM13.869 26.8335H10.269V35.8335H12.051V32.814H13.8577C14.5027 32.814 15.0517 32.6842 15.5047 32.4248C15.9607 32.1593 16.308 31.803 16.5465 31.356C16.7935 30.8868 16.9181 30.3629 16.9088 29.8328C16.9088 29.2717 16.7902 28.764 16.5532 28.3095C16.3158 27.8617 15.9571 27.4898 15.5182 27.2362C15.0157 26.9536 14.4452 26.8143 13.869 26.8335ZM15.0953 29.8328C15.1033 30.1299 15.0376 30.4244 14.904 30.69C14.7848 30.9197 14.5989 31.1079 14.3708 31.23C14.1086 31.3591 13.8191 31.4224 13.527 31.4145H12.042V28.251H13.527C14.019 28.251 14.4038 28.3875 14.6813 28.6605C14.9573 28.932 15.0953 29.3228 15.0953 29.8328Z" fill="#EC12A0"/>
</g>
<defs>
<clipPath id="clip0_706_875">
<rect width="36" height="36" fill="white"/>
</clipPath>
</defs>
</svg>
