<svg width="24" height="24" viewBox="0 0 24 24" fill="none" xmlns="http://www.w3.org/2000/svg">
<path d="M17.5 20C16.8 20 16.2083 19.7583 15.725 19.275C15.2417 18.7917 15 18.2 15 17.5C15 16.8 15.2417 16.2083 15.725 15.725C16.2083 15.2417 16.8 15 17.5 15C17.6333 15 17.7833 15.0127 17.95 15.038C18.1167 15.0633 18.3 15.1173 18.5 15.2V10H22V12H20V17.5C20 18.2 19.7583 18.7917 19.275 19.275C18.7917 19.7583 18.2 20 17.5 20ZM11 12C9.9 12 8.95833 11.6083 8.175 10.825C7.39167 10.0417 7 9.1 7 8C7 6.9 7.39167 5.95833 8.175 5.175C8.95833 4.39167 9.9 4 11 4C12.1 4 13.0417 4.39167 13.825 5.175C14.6083 5.95833 15 6.9 15 8C15 9.1 14.6083 10.0417 13.825 10.825C13.0417 11.6083 12.1 12 11 12ZM3 20V17.2C3 16.6167 3.146 16.0917 3.438 15.625C3.73 15.1583 4.11733 14.8 4.6 14.55C5.63333 14.0333 6.68333 13.646 7.75 13.388C8.81667 13.13 9.9 13.0007 11 13C11.7 13 12.396 13.0543 13.088 13.163C13.78 13.2717 14.4757 13.434 15.175 13.65C14.075 14.3167 13.3917 15.271 13.125 16.513C12.8583 17.755 13.075 18.9173 13.775 20H3Z" fill="#F4EFEF"/>
</svg>
