<svg width="24" height="21" viewBox="0 0 24 21" fill="none" xmlns="http://www.w3.org/2000/svg">
<path d="M21.6 3.2998H2.4C1.07625 3.2998 0 4.37605 0 5.6998V15.2998C0 16.6236 1.07625 17.6998 2.4 17.6998H6.915C7.8225 17.6998 8.655 17.1861 9.06 16.3723L10.26 13.9723C10.59 13.3161 11.2613 12.8998 11.9963 12.8998C12.7313 12.8998 13.4025 13.3161 13.7325 13.9723L14.9325 16.3723C15.3375 17.1861 16.17 17.6998 17.0775 17.6998H21.6C22.9238 17.6998 24 16.6236 24 15.2998V5.6998C24 4.37605 22.9238 3.2998 21.6 3.2998ZM3.6 9.89981C3.6 9.26329 3.85286 8.65284 4.30294 8.20275C4.75303 7.75266 5.36348 7.4998 6 7.4998C6.63652 7.4998 7.24697 7.75266 7.69706 8.20275C8.14714 8.65284 8.4 9.26329 8.4 9.89981C8.4 10.5363 8.14714 11.1468 7.69706 11.5969C7.24697 12.0469 6.63652 12.2998 6 12.2998C5.36348 12.2998 4.75303 12.0469 4.30294 11.5969C3.85286 11.1468 3.6 10.5363 3.6 9.89981ZM18 7.4998C18.6365 7.4998 19.247 7.75266 19.6971 8.20275C20.1471 8.65284 20.4 9.26329 20.4 9.89981C20.4 10.5363 20.1471 11.1468 19.6971 11.5969C19.247 12.0469 18.6365 12.2998 18 12.2998C17.3635 12.2998 16.753 12.0469 16.3029 11.5969C15.8529 11.1468 15.6 10.5363 15.6 9.89981C15.6 9.26329 15.8529 8.65284 16.3029 8.20275C16.753 7.75266 17.3635 7.4998 18 7.4998Z" fill="#F4EFEF"/>
</svg>
